<svg xmlns="http://www.w3.org/2000/svg" viewBox="0 0 700 700" width="700px" height="700px">
    <defs>
        <style>.cls-1 {
            fill: red;
        }

        .cls-2, .cls-4 {
            fill: none;
            stroke-miterlimit: 10;
            stroke-width: 20px;
        }

        .cls-2 {
            stroke: #000;
        }

        .cls-3 {
            fill: #000105;
        }

        .cls-4 {
            stroke: #000105;
            stroke-linecap: round;
        }</style>
    </defs>
    <title>3Ресурс 35</title>
    <rect height="100%" width="100%" fill="white" rx="150" ry="150"></rect>
    <svg x="85" y="105">
        <g id="Слой_2" data-name="Слой 2">
            <g id="Слой_1-2" data-name="Слой 1">
                <polygon x="30px" class="cls-1"
                         points="520.92 336.97 78.7 340.3 78.7 230.99 471.85 230.99 519.45 255.94 520.92 336.97"/>
                <path x="20" class="cls-2"
                      d="M336.52,123a6.09,6.09,0,0,1-6.66,3c-18.65-3.24-89.87-10.63-143.28,8.45C126.7,155.9,90.13,195.86,78.7,235.75,67.77,273.88,72.22,337,94.38,364.54c22.54,28,39,31.84,39.92,37.54s-14.25,43.72-11.4,50.38c2.08,4.86,32,19.85,49.16,27.59a12.68,12.68,0,0,0,16.67-6.15c6.49-13.75,20.4-36,25-37.31,6.65-1.9,33.72,9.69,52.26,9.69s53.7-10,57-8.08,11.4,39,20.43,41.35,52.76-8.56,58.93-12.36c5.8-3.56,14.29-8.37,14.15-16.39a9.84,9.84,0,0,0-.47-2.74c-1.77-6-10-34.35-7-36.47,0,0,34.69-20,46.1-36.6s16.63-38,23.76-38,37.41,1.67,39.79-.24c1.85-1.48,0-55.06-.56-78.06a10.56,10.56,0,0,0-10.55-10.32c-11.2,0-28-1-31.06-5.95-4.75-7.61-18.53-66.54-64.63-91.72,0,0-20-7.13-14.73-27.09s17.1-58,19-60.36S376.92,76.45,336.52,123Z"/>
                <path class="cls-3"
                      d="M203,0A83.68,83.68,0,0,0,134.6,131.88l21.13-13.42A58.71,58.71,0,1,1,261.21,91.72l24.9,2.51a84.74,84.74,0,0,0,.65-10.51A83.82,83.82,0,0,0,203,0Z"/>
                <path class="cls-4"
                      d="M73.85,237.77C59,236.71,47.37,224.66,39.26,209.68c-3.7-6.85-6.86-14.55-7.72-23.66s.88-19.85,5.86-28.25,13.48-13.53,19.44-10.38a7.36,7.36,0,0,1,3.79,5.07,16.3,16.3,0,0,1,.07,5.09C59,172.61,47.36,186.76,36.42,188.91S16.14,182.7,12.34,170.2s-2.66-28.45,1.23-43.46,9.58-23.35,28.35-33.57"/>
                <circle class="cls-3" cx="419.31" cy="254.4" r="21.3"/>
            </g>
        </g>
    </svg>
</svg>
